#define emCursorNormalMask_width 16
#define emCursorNormalMask_height 16
static unsigned char emCursorNormalMask_bits[] = {
   0x01, 0x00, 0x07, 0x00, 0x1e, 0x00, 0x7e, 0x00, 0xfc, 0x01, 0xfc, 0x07,
   0xf8, 0x1f, 0xf8, 0x7f, 0xf0, 0x7f, 0xf0, 0x0f, 0xe0, 0x1f, 0xe0, 0x3f,
   0xc0, 0x7f, 0xc0, 0x7d, 0x80, 0x79, 0x80, 0x31 };
