#define emCursorNormalSource_width 16
#define emCursorNormalSource_height 16
#define emCursorNormalSource_x_hot 1
#define emCursorNormalSource_y_hot 1
static unsigned char emCursorNormalSource_bits[] = {
   0x00, 0x00, 0x02, 0x00, 0x0c, 0x00, 0x3c, 0x00, 0xf8, 0x00, 0xf8, 0x03,
   0xf0, 0x0f, 0xf0, 0x01, 0xe0, 0x03, 0x60, 0x07, 0x40, 0x0e, 0x40, 0x1c,
   0x00, 0x08, 0x00, 0x00, 0x00, 0x00, 0x00, 0x00 };
